<svg width="1860" height="909" viewBox="0 0 1860 909" fill="none" xmlns="http://www.w3.org/2000/svg">
<g id="assetsBgProjeto">
<g id="figma">
<path d="M458.203 139.878L476.368 107.071L458.047 96.927C450.988 93.5899 441.265 95.0645 434.842 104.653C428.408 116.952 435.622 127.375 439.883 129.734L458.203 139.878Z" fill="black"/>
<path d="M476.335 107.052L458.116 139.829L476.42 150.003C483.474 153.352 493.199 151.894 499.638 142.315C506.092 130.027 498.895 119.593 494.639 117.227L476.335 107.052Z" fill="black"/>
<path d="M440.039 172.685L458.203 139.878L439.394 129.463C432.153 126.026 422.685 127.642 416.24 137.218C409.813 149.521 416.855 159.848 421.229 162.27L440.039 172.685Z" fill="black"/>
<path d="M430.835 189.307C425.752 198.487 413.994 201.7 404.572 196.483C395.15 191.267 391.633 179.596 396.716 170.415C401.799 161.235 413.557 158.022 422.979 163.239C427.426 165.701 438.289 171.716 440.039 172.685C439.554 173.56 433.519 184.46 430.835 189.307Z" fill="black"/>
<path d="M482.877 175.829C477.66 185.251 465.793 188.659 456.372 183.443C446.95 178.226 443.541 166.359 448.758 156.937C453.974 147.516 465.841 144.107 475.263 149.324C484.685 154.54 488.094 166.407 482.877 175.829Z" fill="black"/>
</g>
<g id="js">
<path d="M1741.83 70.107L1821.79 51.9527L1840.17 132.893L1760.21 151.047L1741.83 70.107Z" fill="black"/>
<path d="M1794.24 97.6889L1786.92 99.3493L1793.23 127.142C1793.23 127.142 1792.56 128.815 1791.72 129.535C1790.39 130.681 1789.06 130.885 1787.34 130.532C1785.57 130.17 1783.64 127.783 1783.64 127.783L1778.94 131.926C1778.94 131.926 1783.24 136.978 1786.83 137.313C1789.74 137.585 1792.68 137.369 1795.22 135.919C1796.62 135.126 1798.05 133.979 1799.06 132.485C1800.67 130.103 1800.77 126.457 1800.77 126.457L1794.24 97.6889Z" fill="white"/>
<path d="M1822.65 96.3658L1818.66 101.373C1818.66 101.373 1816.39 98.9253 1814.47 98.7352C1813.11 98.6008 1812.2 98.7653 1811.06 99.5101C1810.01 100.191 1809.32 100.791 1809.06 102.014C1808.82 103.16 1809.09 103.956 1809.73 104.939C1810.26 105.759 1811.63 106.558 1811.63 106.558C1811.63 106.558 1826.67 107.679 1829.4 114.828C1829.96 116.287 1830.24 117.168 1830.29 118.729C1830.41 123.01 1828.2 125.659 1824.75 128.191C1821.28 130.731 1818.27 131.281 1814.02 130.626C1810.19 130.036 1805.27 125.948 1805.27 125.948L1809.74 120.83C1809.74 120.83 1813 123.837 1815.62 124.111C1817.75 124.336 1819.27 124.198 1820.98 122.893C1821.97 122.134 1822.98 120.39 1822.98 120.39C1822.98 120.39 1823.62 118.705 1822.09 116.489C1820.56 114.272 1806.62 115.704 1803.34 108.44C1802.38 106.303 1801.87 104.927 1802.01 102.588C1802.24 98.8651 1803.77 96.4951 1806.8 94.3231C1809.66 92.2768 1812.11 91.7455 1815.58 92.3306C1818.71 92.8598 1822.65 96.3658 1822.65 96.3658Z" fill="white"/>
</g>
<g id="ts">
<path d="M41 672.562L111.686 631L153.249 701.686L82.5626 743.249L41 672.562Z" fill="black"/>
<path d="M123.442 668.75L125.19 674.682C125.19 674.682 120.551 675.67 118.396 676.937C117.218 677.63 115.636 678.592 114.77 679.649C113.978 680.616 114.06 682.387 114.06 682.387C114.06 682.387 114.301 683.783 114.643 684.364C115.656 686.088 116.772 686.013 118.572 686.114C120.372 686.216 131.444 682.53 136.222 688.512C137.197 689.732 137.861 690.395 138.377 691.87C139.793 695.911 139.039 699.363 136.517 702.824C133.987 706.296 130.547 708.123 126.426 709.337C122.471 710.503 120.925 710.832 120.925 710.832L119.608 704.646C119.608 704.646 123.221 703.86 125.793 703.329C127.897 702.895 130.345 701.111 131.574 699.35C132.29 698.325 132.462 695.928 132.462 695.928C132.462 695.928 131.886 693.961 129.757 692.313C127.627 690.665 114.945 695.565 109.622 689.636C108.057 687.893 107.7 686.368 107.265 684.642C106.354 681.024 108.625 677.462 109.396 676.428C111.498 673.611 114.493 672.272 116.217 671.258C118.943 669.655 123.442 668.75 123.442 668.75Z" fill="white"/>
<path d="M94.9435 691.307L110.91 718.461L104.875 722.009L88.9093 694.855L79.858 700.177L76.8169 695.005L100.954 680.813L103.995 685.985L94.9435 691.307Z" fill="white"/>
</g>
<g id="css">
<path d="M124 423L94.5 430.5L64 421L60.5 346L133 349L124 423Z" fill="black"/>
<path d="M113.5 409.5L94.5 415L76 408.5L75 394.5H84L84.5 401.5L94.5 404.5L105 403L106.5 390.5L75 389.5L74 381L95.5 372.5L74 371.5L73 362.5L119.5 364L118.5 373L97.5 381L116.5 382L113.5 409.5Z" fill="white"/>
</g>
<g id="html">
<path d="M1520.24 132.04L1459.45 87.0858L1418.55 153.168C1424.53 161.119 1436.86 177.339 1438.4 178.612C1439.94 179.884 1459.23 187.149 1468.68 190.622L1520.24 132.04Z" fill="black"/>
<path d="M1493.28 143.508L1499.01 136.565L1461.16 108.588L1446.43 132.733L1472.45 152.256L1464.82 161.513L1454.11 157.214L1447.28 148.99L1451.28 142.568L1444.02 137.227L1435.95 149.367L1448.51 165.565L1466.99 173.026L1486.15 150.586L1458.96 130.109L1464.24 122.144L1493.28 143.508Z" fill="white"/>
</g>
<g id="node">
<path d="M34.0001 102.5L27 100C27 100 30.5002 115 33.0001 117.5C35.5 120 77.0001 129.5 79.5001 128.5C83.6523 126.839 110 97 110 96C110 95.4831 106.194 84.1199 103 73C100.015 62.6084 97.1908 52.4492 95.5001 51C92 48 53.0001 40.5 53.0001 40.5C50.2415 39.5266 48.9851 39.9363 47.0001 41.5C47.0001 41.5 19.5001 69 19.0001 72C18.5001 75 23 87 25.5 91.5C28 96 37.0001 97.5 39.0001 95C41.0001 92.5 68 64.5 68 64.5L63.2369 60C63.2369 60 39.0001 87 34.5001 89.5C30 92 25.4212 75.5 25.5 74C25.5788 72.5 50.0001 46.5 51.5001 46.5C53.0001 46.5 90.5 54.5 91.5 56.5C92.5 58.5 103.5 93 103 95C102.5 97 78.5 121.5 77.5 122C76.5 122.5 38.2107 113.717 37.5001 113C36.7895 112.283 34.0001 102.5 34.0001 102.5Z" fill="black"/>
<path d="M58.5001 89L54.0001 85C54.0001 85 49.5 87.5 50.0001 94C50.3829 98.975 52.6354 101.315 56 105C60.0902 109.479 64.5 113 69.5001 113.5C72.943 113.844 75.4069 113.291 78.0001 111C80.2907 108.977 81.3306 107.052 81.5001 104C82 95 64.5 85 69 79.5C71.5818 76.3444 76.6171 79.617 79.5001 82.5C87 90 82 95 82 95L87 99C87 99 91.0002 94.5 90.5001 89.5C89.9 83.5 79 71.5 71.5001 72C65.5746 72.395 60.0972 77.1304 61.0001 83C62 89.5 73.4999 97.5 74 102.5C74.2915 105.414 71.5 108 68.5001 107C62.4691 104.99 58 98.5 56.5001 96C55.0374 93.5621 58.5001 89 58.5001 89Z" fill="black"/>
</g>
<g id="react">
<path d="M1698.5 286C1698.5 290.971 1694.47 295 1689.5 295C1684.53 295 1680.5 290.971 1680.5 286C1680.5 281.029 1684.53 277 1689.5 277C1694.47 277 1698.5 281.029 1698.5 286Z" fill="black"/>
<path d="M1674 276.5C1683.89 259.635 1702.5 239.5 1712.5 244.5C1724.5 250.5 1715.06 276.674 1706 293.5C1696.2 311.705 1674.6 334.5 1665 326.5C1656 319 1663.96 293.614 1674 276.5Z" stroke="black" stroke-width="4"/>
<path d="M1689.78 267.95C1709.33 268.122 1736.06 274.225 1736.71 285.386C1737.48 298.78 1710.09 303.637 1690.98 304.166C1670.32 304.738 1639.79 297.371 1641.94 285.061C1643.96 273.52 1669.94 267.776 1689.78 267.95Z" stroke="black" stroke-width="4"/>
<path d="M1705.48 277.554C1714.9 294.687 1722.66 320.984 1713.24 327.011C1701.94 334.244 1684.3 312.729 1674.49 296.33C1663.87 278.586 1655.36 248.361 1667.15 244.213C1678.2 240.325 1695.92 260.168 1705.48 277.554Z" stroke="black" stroke-width="4"/>
<path d="M1698.5 286C1698.5 290.971 1694.47 295 1689.5 295C1684.53 295 1680.5 290.971 1680.5 286C1680.5 281.029 1684.53 277 1689.5 277C1694.47 277 1698.5 281.029 1698.5 286Z" stroke="black" stroke-width="4"/>
</g>
<path id="git" d="M1804.46 594.449L1793.5 581.5L1791 613.204C1793.69 614.76 1795.5 617.669 1795.5 621C1795.5 625.971 1791.47 630 1786.5 630C1781.53 630 1777.5 625.971 1777.5 621C1777.5 616.897 1780.25 613.435 1784 612.352L1786.45 580.772C1783.24 579.394 1781 576.209 1781 572.5C1781 570.93 1781.4 569.454 1782.11 568.169L1769.4 554.32L1735.5 584.5C1730.82 588.612 1728.05 592.011 1731 596.5L1777.5 650.5C1782 654.526 1784.91 655.878 1789 653.5L1844.5 605C1848.53 601.664 1846.64 596.929 1844 594L1797 540C1792.82 536.463 1790.18 537.005 1786.5 540L1775 549.445L1787.59 563.827C1788.36 563.614 1789.16 563.5 1790 563.5C1794.97 563.5 1799 567.53 1799 572.5C1799 573.741 1798.75 574.924 1798.29 576L1810.29 589.774C1811 589.595 1811.74 589.5 1812.5 589.5C1817.47 589.5 1821.5 593.53 1821.5 598.5C1821.5 603.471 1817.47 607.5 1812.5 607.5C1807.53 607.5 1803.5 603.471 1803.5 598.5C1803.5 597.043 1803.85 595.667 1804.46 594.449Z" fill="black"/>
</g>
</svg>
