<svg width="82" height="82" viewBox="0 0 82 82" fill="none" xmlns="http://www.w3.org/2000/svg">
<g id="figma">
<g id="figma_2">
<path d="M42.085 27.2057L41.6755 0.0030418L26.2644 0.0311131C20.5355 0.404261 14.8667 4.76714 14.2755 13.1106C14.6687 23.1762 23.09 27.2403 26.6739 27.2338L42.085 27.2057Z" fill="black"/>
<path d="M41.6473 0.00305844L42.0114 27.2058L57.4228 27.2027C63.1524 26.8389 68.8287 22.4853 69.4339 14.143C69.0575 4.07705 60.6428 -0.000710826 57.0588 9.29391e-08L41.6473 0.00305844Z" fill="black"/>
<path d="M42.4945 54.4084L42.085 27.2057L26.263 27.2346C20.3811 27.608 14.9274 31.9705 14.317 40.314C14.7167 50.3795 22.9929 54.444 26.6725 54.4373L42.4945 54.4084Z" fill="black"/>
<path d="M42.702 68.1911C42.8166 75.8031 36.4846 81.9855 28.5592 82C20.6338 82.0144 14.1161 75.8554 14.0015 68.2434C13.8869 60.6314 20.2189 54.449 28.1443 54.4346C31.8851 54.4278 41.0227 54.4111 42.4945 54.4084C42.5054 55.1338 42.6415 64.1721 42.702 68.1911Z" fill="black"/>
<path d="M70.9984 41.2989C71.116 49.1112 64.7865 55.456 56.8611 55.4704C48.9357 55.4848 42.4155 49.1634 42.2979 41.3511C42.1803 33.5389 48.5098 27.194 56.4352 27.1796C64.3606 27.1652 70.8808 33.4866 70.9984 41.2989Z" fill="black"/>
</g>
</g>
</svg>
