<svg width="82" height="82" viewBox="0 0 82 82" fill="none" xmlns="http://www.w3.org/2000/svg">
<path id="git" d="M52.1792 39.161L43.9807 30.594L43.5849 52.8167C45.528 53.7879 46.9145 55.7399 47.0562 58.0637C47.2676 61.5311 44.6276 64.5133 41.1595 64.7247C37.6914 64.9361 34.7085 62.2966 34.4971 58.8292C34.3226 55.9669 36.0911 53.4352 38.6645 52.5198L39.0291 30.386C36.7349 29.5612 35.0339 27.4348 34.8762 24.8474C34.8094 23.7523 35.027 22.7056 35.4654 21.7793L26.0084 12.6583L3.6401 35.1533C0.550039 38.2208 -1.24187 40.7099 1.0107 43.7157L35.7519 79.4079C39.0652 82.0246 41.1482 82.8444 43.9035 81.0116L80.5644 44.8184C83.2362 42.3201 81.7164 39.0969 79.7476 37.1663L44.6574 1.49538C41.5886 -0.79407 39.7691 -0.303683 37.3313 1.94195L29.7091 9.01931L39.1048 18.5166C39.631 18.3356 40.1903 18.2219 40.7729 18.1864C44.241 17.975 47.2238 20.6145 47.4353 24.0819C47.4881 24.9479 47.363 25.7836 47.0916 26.5534L56.0469 35.6516C56.5328 35.4969 57.0455 35.3992 57.5777 35.3667C61.0458 35.1554 64.0287 37.7949 64.2401 41.2623C64.4515 44.7297 61.8115 47.7119 58.3433 47.9233C54.8752 48.1347 51.8924 45.4952 51.681 42.0278C51.619 41.0113 51.8021 40.0365 52.1792 39.161Z" fill="black"/>
</svg>
