<svg width="82" height="82" viewBox="0 0 82 82" fill="none" xmlns="http://www.w3.org/2000/svg">
<g id="js" clip-path="url(#clip0_262_28)">
<g id="js_2">
<path d="M0.204691 0L82 0.1998L81.7953 82L0 81.8002L0.204691 0Z" fill="black"/>
<path d="M44.9974 38.0531L37.5161 38.0348L37.4459 66.1228C37.4459 66.1228 36.421 67.5821 35.4459 68.0891C33.8946 68.8956 32.552 68.797 30.9571 68.0781C29.3234 67.3417 27.9733 64.6214 27.9733 64.6214L22.4796 67.5646C22.4796 67.5646 25.5355 73.3672 28.9461 74.4793C31.7206 75.3839 34.6258 75.8242 37.4237 74.9928C38.9527 74.5384 40.6048 73.7529 41.9186 72.5399C44.0121 70.6069 44.9247 67.1267 44.9247 67.1267L44.9974 38.0531Z" fill="white"/>
<path d="M72.9152 43.049L67.9178 46.979C67.9178 46.979 66.2629 44.128 64.4352 43.5211C63.1428 43.092 62.2244 43.05 60.9439 43.5126C59.7726 43.9357 58.9707 44.3601 58.4452 45.4776C57.9529 46.5247 58.0376 47.3494 58.4378 48.4342C58.7714 49.3382 59.9291 50.409 59.9291 50.409C59.9291 50.409 74.2954 54.8025 75.3609 62.2733C75.5783 63.7977 75.656 64.7057 75.351 66.2154C74.5148 70.3543 71.7728 72.4107 67.85 74.0815C63.915 75.7575 60.8589 75.6199 56.8774 74.0547C53.2852 72.6425 49.4122 67.6304 49.4122 67.6304L54.9083 63.7016C54.9083 63.7016 57.406 67.3088 59.8848 68.1488C61.9114 68.8355 63.4211 69.0394 65.371 68.1622C66.5061 67.6515 67.8697 66.1972 67.8697 66.1972C67.8697 66.1972 68.8709 64.7213 67.8796 62.255C66.8882 59.7887 53.0105 58.0879 51.4504 50.3882C50.9916 48.1239 50.8031 46.6897 51.4652 44.475C52.5193 40.949 54.5326 39.0093 57.9662 37.592C61.2012 36.2567 63.705 36.2875 66.9437 37.6139C69.8728 38.8136 72.9152 43.049 72.9152 43.049Z" fill="white"/>
</g>
</g>
<defs>
<clipPath id="clip0_262_28">
<rect width="82" height="82" fill="white"/>
</clipPath>
</defs>
</svg>
