<svg width="82" height="82" viewBox="0 0 82 82" fill="none" xmlns="http://www.w3.org/2000/svg">
<g id="node">
<g id="node_2">
<path d="M32.2142 71.5882L25.9468 74.2764C25.9468 74.2764 37.7806 81.9103 41.0357 81.9997C44.2909 82.0891 78.08 62.6771 79.1206 60.481C80.849 56.8336 79.6048 21.0875 78.9721 20.4346C78.645 20.097 68.9078 15.0264 59.7339 9.7372C51.1608 4.79442 42.8423 -0.0958931 40.7937 0.00142888C36.5527 0.202892 5.70259 19.3776 5.70259 19.3776C3.24026 20.4447 2.65849 21.4878 2.31921 23.734C2.31921 23.734 1.31209 58.6641 2.87563 60.9315C4.43916 63.199 15.0439 68.257 19.5646 69.6522C24.0852 71.0474 31.0586 66.4717 30.8154 63.6049C30.5723 60.738 30.9283 25.7902 30.9283 25.7902L24.8928 25.7918C24.8928 25.7918 25.7536 58.3812 24.3233 62.7912C22.8931 67.2011 9.38819 59.2535 8.49182 58.2255C7.59545 57.1974 7.4909 25.1471 8.49492 24.2212C9.49895 23.2954 39.6614 5.37295 41.5962 6.06163C43.531 6.75031 72.7231 22.4876 73.6539 24.1022C74.5847 25.7167 74.0221 56.5276 73.6691 57.4713C73.3161 58.4151 42.1299 76.3134 41.2005 76.2839C40.2712 76.2543 32.2142 71.5882 32.2142 71.5882Z" fill="black"/>
<path d="M40.0714 47.6512L34.5284 47.8169C34.5284 47.8169 33.0981 52.2269 37.5456 56.1624C40.9496 59.1746 43.9382 59.3124 48.5217 59.6416C54.0935 60.0417 59.273 59.6187 62.9362 56.859C65.4585 54.9587 66.7575 53.0765 67.0438 49.9802C67.2967 47.2451 66.7748 45.3464 64.9574 43.2492C59.5975 37.064 41.5565 41.336 41.0886 34.9672C40.8201 31.3132 46.2611 30.3421 50.015 30.4451C59.7806 30.7131 59.5975 37.064 59.5975 37.064L65.4752 36.5897C65.4752 36.5897 65.3054 31.1824 61.807 28.2263C57.609 24.679 42.7203 23.5713 38.0166 28.527C34.3003 32.4423 33.6302 38.9151 37.9484 42.1904C42.7305 45.8174 55.4898 43.9429 58.9882 46.899C61.0273 48.6221 60.7948 52.0334 58.1541 53.232C52.8451 55.6418 45.7476 54.1629 43.1618 53.4563C40.6402 52.7672 40.0714 47.6512 40.0714 47.6512Z" fill="black"/>
</g>
</g>
</svg>
