<svg width="82" height="82" viewBox="0 0 82 82" fill="none" xmlns="http://www.w3.org/2000/svg">
<g id="react">
<path id="react_2" d="M22.2178 3.50781C24.8873 2.49603 27.8443 3.07304 30.7734 4.55957C33.7099 6.04982 36.7532 8.51785 39.71 11.54C40.258 12.1002 40.805 12.6805 41.3486 13.2793C42.0863 12.4809 42.8281 11.7134 43.5703 10.9834C46.5799 8.02354 49.6471 5.62751 52.543 4.26074C55.4296 2.89836 58.3248 2.48246 60.8066 3.81934C63.6642 5.35867 65.1656 8.16531 65.748 11.5449C66.3279 14.9098 66.0229 18.9572 65.1826 23.2266C64.8799 24.7645 64.5045 26.3404 64.0723 27.9355C65.1353 28.2394 66.1735 28.5651 67.1787 28.9111C71.0677 30.25 74.5266 31.9229 77.0664 33.9443C79.6042 35.9643 81.3294 38.4216 81.4854 41.3184C81.6668 44.6891 80.1835 47.4866 77.7236 49.7422C75.2862 51.9771 71.8557 53.7186 67.9883 55.0654C66.6365 55.5362 65.2219 55.9606 63.7656 56.3438C64.0733 57.6064 64.3475 58.8536 64.5801 60.0762C65.3974 64.373 65.7334 68.42 65.3428 71.7725C64.9548 75.1024 63.8239 77.9391 61.5166 79.5303C58.8151 81.3931 55.761 81.3545 52.7168 80.1416C49.707 78.9424 46.62 76.5712 43.6445 73.6045C42.7016 72.6643 41.7643 71.657 40.8369 70.5996C40.0547 71.4317 39.269 72.2301 38.4824 72.9854C35.1864 76.1503 31.8243 78.6447 28.7119 79.877C25.583 81.1157 22.5068 81.1385 20.1172 78.9932C17.9765 77.0712 16.9364 74.0921 16.624 70.6523C16.3103 67.1973 16.7155 63.134 17.6094 58.8545C17.7982 57.9507 18.0098 57.0352 18.2412 56.1113C16.9692 55.7449 15.7316 55.3492 14.542 54.9229C10.3437 53.418 6.66056 51.5183 4.12402 49.2305C1.57596 46.9322 0.0809629 44.1332 0.602539 40.9199C1.07767 37.993 2.94952 35.527 5.58984 33.5C8.23118 31.4722 11.7211 29.8189 15.6221 28.5176C16.5675 28.2022 17.5403 27.9068 18.5342 27.6309C18.1924 26.2029 17.8944 24.7942 17.6484 23.418C16.8142 18.7505 16.552 14.3844 17.1582 10.9062C17.7623 7.44029 19.283 4.62017 22.2178 3.50781ZM61.8252 56.8252C58.0504 57.7031 54.0631 58.3148 50.1953 58.7061C47.7506 62.3723 45.0169 65.9495 42.1953 69.1152C43.1417 70.2012 44.098 71.2317 45.0576 72.1885C47.9514 75.0737 50.8114 77.2301 53.457 78.2842C56.0684 79.3246 58.3783 79.2646 60.3809 77.8838C61.9932 76.772 62.9951 74.634 63.3555 71.541C63.7132 68.4703 63.4134 64.6457 62.6152 60.4492C62.3897 59.2633 62.1241 58.0523 61.8252 56.8252ZM20.1719 56.6377C19.9507 57.5227 19.748 58.399 19.5674 59.2637C18.6959 63.436 18.3269 67.2859 18.6162 70.4717C18.907 73.6728 19.8484 76.0633 21.4541 77.5049C23.0609 78.9472 25.2301 79.1045 27.9756 78.0176C30.7374 76.9242 33.8794 74.6323 37.0977 71.542C37.9099 70.7621 38.7225 69.935 39.5312 69.0693C36.881 65.8806 34.342 62.3259 32.0566 58.7715C28.0595 58.3411 23.9927 57.6218 20.1719 56.6377ZM47.623 58.9346C45.8445 59.0724 44.1086 59.1663 42.4492 59.2158C39.9658 59.2899 37.3152 59.2173 34.5996 59.0068C36.5649 61.979 38.69 64.9095 40.8887 67.5742C43.2358 64.9215 45.5228 61.9753 47.623 58.9346ZM41.4062 26.7334C38.7797 26.7085 36.0235 26.8194 33.2412 27.0654C31.7525 29.3449 30.3744 31.6439 29.1572 33.8799C27.8057 36.3627 26.5019 39.0418 25.2959 41.8135C26.616 44.9871 28.0616 48.0079 29.5576 50.7021C30.6697 52.7049 31.9039 54.7893 33.2256 56.8799C36.4001 57.1852 39.512 57.3026 42.3896 57.2168C44.5143 57.1534 46.7596 57.0172 49.0527 56.8057C50.934 53.9247 52.6271 51.0028 54.0264 48.2031C54.9977 46.2596 55.9706 44.1771 56.9111 42.0156C55.8629 39.4902 54.746 37.0561 53.5957 34.8018C52.3118 32.2855 50.8473 29.7141 49.2607 27.1855C46.5692 26.909 43.916 26.7572 41.4062 26.7334ZM24.2178 44.3818C22.8388 47.7916 21.6276 51.2918 20.6816 54.7031C23.9014 55.5319 27.3067 56.169 30.6934 56.5977C29.6652 54.9259 28.6974 53.2727 27.8096 51.6738C26.564 49.4307 25.3526 46.9685 24.2178 44.3818ZM57.9502 44.6104C57.2453 46.1668 56.5287 47.6696 55.8154 49.0967C54.6029 51.5227 53.175 54.0373 51.5977 56.541C54.8688 56.1595 58.1811 55.6168 61.3291 54.8867C60.4135 51.48 59.2545 47.9908 57.9502 44.6104ZM63.5273 29.8594C62.3137 33.9522 60.7561 38.1162 59.0811 42.0342C60.7145 46.0547 62.1647 50.2847 63.2705 54.4062C64.6736 54.0368 66.0341 53.6284 67.3311 53.1768C71.073 51.8736 74.2176 50.244 76.3721 48.2686C78.504 46.3137 79.6302 44.0618 79.4883 41.4258C79.3747 39.3171 78.1155 37.3355 75.8203 35.5088C73.5272 33.6837 70.3037 32.1018 66.5273 30.8018C65.5575 30.4679 64.5551 30.1532 63.5273 29.8594ZM19.0225 29.5713C18.0773 29.8345 17.1527 30.1156 16.2549 30.415C12.4744 31.6761 9.21017 33.2424 6.80762 35.0869C4.40412 36.9322 2.9422 38.9919 2.57715 41.2402C2.20264 43.5474 3.21244 45.7151 5.46289 47.7451C7.72508 49.7855 11.1349 51.5769 15.2168 53.04C16.3528 53.4472 17.5356 53.8254 18.752 54.1768C19.8912 50.0669 21.4029 45.8429 23.126 41.7969C21.5128 37.8277 20.0995 33.6485 19.0225 29.5713ZM41.1836 32.8506C45.943 32.8506 49.6768 36.9837 49.6768 41.9229C49.6767 46.862 45.943 50.9951 41.1836 50.9951C36.4242 50.9951 32.6904 46.862 32.6904 41.9229C32.6904 36.9837 36.4242 32.8506 41.1836 32.8506ZM51.7939 27.4844C53.0916 29.6239 54.2979 31.7779 55.377 33.8926C56.2745 35.6516 57.1511 37.519 57.9941 39.4531C59.3484 36.1471 60.5922 32.7126 61.5947 29.3389C58.448 28.5378 55.1163 27.9193 51.7939 27.4844ZM30.6953 27.3281C27.3834 27.7178 24.0795 28.2978 20.957 29.0654C21.8482 32.4384 22.9768 35.8878 24.2598 39.2246C25.2607 37.0337 26.3157 34.9164 27.4004 32.9238C28.4003 31.0869 29.5079 29.2073 30.6953 27.3281ZM59.8584 5.58008C58.1776 4.67466 56.0137 4.83411 53.3965 6.06934C50.7885 7.30022 47.9064 9.52391 44.9727 12.4092C44.2067 13.1625 43.4403 13.9581 42.6777 14.7881C45.4158 17.9771 48.0546 21.5855 50.4355 25.3037C54.3792 25.7504 58.3833 26.4552 62.1416 27.415C62.5623 25.8628 62.9272 24.3319 63.2207 22.8408C64.0393 18.6818 64.2981 14.907 63.7773 11.8848C63.2592 8.87752 61.996 6.73167 59.8584 5.58008ZM29.8682 6.34277C27.1944 4.98592 24.8576 4.6462 22.9268 5.37793C20.9543 6.12555 19.6799 8.08845 19.1289 11.249C18.5801 14.3976 18.8014 18.502 19.6172 23.0664C19.854 24.3913 20.141 25.7484 20.4697 27.125C24.1982 26.2078 28.1661 25.5553 32.0996 25.165C34.525 21.5225 37.2196 17.9483 40.0029 14.7744C39.4309 14.1406 38.8564 13.5273 38.2803 12.9385C35.4033 9.99791 32.5348 7.69608 29.8682 6.34277ZM41.333 16.292C39.012 18.9564 36.7504 21.9099 34.6621 24.9463C36.968 24.7836 39.2416 24.7127 41.4258 24.7334C43.4997 24.753 45.6699 24.858 47.8809 25.0469C45.8315 21.9531 43.616 18.9701 41.333 16.292Z" fill="black" stroke="black" stroke-width="2"/>
</g>
</svg>
