<svg width="82" height="82" viewBox="0 0 82 82" fill="none" xmlns="http://www.w3.org/2000/svg">
<g id="ts">
<g id="ts_2">
<path d="M2.25716 0L80 0.270351L79.7428 82L2 81.7297L2.25716 0Z" fill="black"/>
<path d="M71.3466 38.6136L69.9056 44.5889C69.9056 44.5889 65.644 43.079 63.2738 43.0708C61.9779 43.0663 60.2232 43.0876 59.0057 43.5544C57.8921 43.9813 57.1033 45.5412 57.1033 45.5412C57.1033 45.5412 56.6252 46.8613 56.6231 47.533C56.6168 49.5264 57.5632 50.028 58.9822 51.0297C60.4013 52.0313 71.2141 54.496 72.2209 62.0523C72.4263 63.5942 72.6471 64.5003 72.356 66.0269C71.5578 70.2119 69.275 72.7888 65.5452 74.4752C61.8038 76.167 58.1145 75.9862 54.1666 74.934C50.3774 73.9242 48.9569 73.4208 48.9569 73.4208L50.8718 67.4472C50.8718 67.4472 54.1988 68.6089 56.5541 69.4604C58.4798 70.1566 61.3382 69.8707 63.1922 68.9851C64.2714 68.4697 65.5703 66.5016 65.5703 66.5016C65.5703 66.5016 66.0505 64.5226 65.1102 62.0275C64.17 59.5325 51.4568 57.2914 49.9802 49.5033C49.546 47.2129 49.9921 45.7241 50.4715 44.023C51.4762 40.458 55.0503 38.5571 56.1788 38.0625C59.2545 36.7145 62.3446 37.0874 64.2407 37.0939C67.2388 37.1041 71.3466 38.6136 71.3466 38.6136Z" fill="white"/>
<path d="M37.1999 43.4785L37.1011 74.8747L30.4645 74.8516L30.5633 43.4555L20.6084 43.4208L20.6273 37.4407L47.1736 37.533L47.1548 43.5132L37.1999 43.4785Z" fill="white"/>
</g>
</g>
</svg>
